# xmcd CD database file
#
# Track frame offsets:
#	182
#	27850
#	41945
#	65830
#	86680
#
# Disc length: 1857 seconds
#
# Revision: 1
# Processed by: cddbd v1.5.2PL0 Copyright (c) Steve Scherf et al.
# Submitted via: CDex 1.70beta2
#
DISCID=42073f05
DTITLE=Emile VOLEL - Hast Mañana
DYEAR=1993
DGENRE=compas
TTITLE0=Hast Mañana
TTITLE1=Merci
TTITLE2=Popouri Espagnol
TTITLE3=Cucurucucu
TTITLE4=Popouri Français
EXTD=YEAR: 1993
EXTT0=
EXTT1=
EXTT2=
EXTT3=
EXTT4=
PLAYORDER=
